<svg width="198" height="64" viewBox="0 0 198 64" fill="none" xmlns="http://www.w3.org/2000/svg">
<rect width="198" height="64" rx="32" fill="white"/>
<path d="M46.3958 31.6732C46.4544 37.4765 51.9392 39.4077 52 39.4323C51.9536 39.5684 51.1236 42.1843 49.1103 44.8864C47.3699 47.2225 45.5637 49.55 42.7182 49.5982C39.9223 49.6455 39.0233 48.0756 35.8267 48.0756C32.6311 48.0756 31.6323 49.55 28.9856 49.6456C26.239 49.7411 24.1475 47.1195 22.3927 44.7919C18.8069 40.0309 16.0666 31.3384 19.7461 25.4708C21.574 22.557 24.8407 20.7118 28.3863 20.6645C31.0833 20.6172 33.629 22.3309 35.2778 22.3309C36.9256 22.3309 40.0191 20.2701 43.2712 20.5727C44.6327 20.6248 48.4544 21.0778 50.9084 24.3766C50.7106 24.4892 46.3483 26.8214 46.3958 31.6732ZM41.1411 17.4229C42.5993 15.8019 43.5807 13.5453 43.313 11.3C41.2111 11.3776 38.6695 12.5863 37.1619 14.2064C35.8108 15.6411 34.6276 17.9374 34.9468 20.1382C37.2896 20.3047 39.6829 19.0449 41.1411 17.4229Z" fill="black"/>
<path d="M76.2401 21.1705C75.5582 21.1705 74.9563 20.9982 74.4343 20.6538C73.9123 20.3058 73.5039 19.8157 73.2092 19.1836C72.9144 18.5479 72.767 17.7969 72.767 16.9304C72.767 16.071 72.9144 15.3253 73.2092 14.6932C73.5039 14.0611 73.9141 13.5728 74.4396 13.2283C74.9652 12.8839 75.5724 12.7116 76.2614 12.7116C76.794 12.7116 77.2148 12.8004 77.5238 12.978C77.8363 13.152 78.0742 13.3509 78.2376 13.5746C78.4045 13.7947 78.5341 13.9759 78.6264 14.1179H78.733V10.0909H79.9901V21H78.7756V19.7429H78.6264C78.5341 19.892 78.4027 20.0803 78.2322 20.3075C78.0618 20.5312 77.8185 20.7319 77.5025 20.9094C77.1864 21.0835 76.7656 21.1705 76.2401 21.1705ZM76.4105 20.0412C76.9148 20.0412 77.3409 19.9098 77.6889 19.647C78.0369 19.3807 78.3015 19.0131 78.4826 18.5444C78.6637 18.0721 78.7543 17.527 78.7543 16.9091C78.7543 16.2983 78.6655 15.7638 78.4879 15.3058C78.3104 14.8441 78.0476 14.4854 77.6996 14.2298C77.3516 13.9705 76.9219 13.8409 76.4105 13.8409C75.8778 13.8409 75.4339 13.9776 75.0788 14.2511C74.7273 14.521 74.4627 14.8885 74.2852 15.3537C74.1112 15.8153 74.0241 16.3338 74.0241 16.9091C74.0241 17.4915 74.1129 18.0206 74.2905 18.4964C74.4716 18.9687 74.7379 19.3452 75.0895 19.6257C75.4446 19.9027 75.8849 20.0412 76.4105 20.0412ZM85.7908 21.1705C85.0522 21.1705 84.4041 20.9947 83.8466 20.6431C83.2926 20.2915 82.8594 19.7997 82.5469 19.1676C82.2379 18.5355 82.0835 17.7969 82.0835 16.9517C82.0835 16.0994 82.2379 15.3555 82.5469 14.7198C82.8594 14.0842 83.2926 13.5906 83.8466 13.239C84.4041 12.8874 85.0522 12.7116 85.7908 12.7116C86.5295 12.7116 87.1758 12.8874 87.7298 13.239C88.2873 13.5906 88.7205 14.0842 89.0295 14.7198C89.342 15.3555 89.4982 16.0994 89.4982 16.9517C89.4982 17.7969 89.342 18.5355 89.0295 19.1676C88.7205 19.7997 88.2873 20.2915 87.7298 20.6431C87.1758 20.9947 86.5295 21.1705 85.7908 21.1705ZM85.7908 20.0412C86.3519 20.0412 86.8136 19.8974 87.1758 19.6097C87.538 19.3221 87.8061 18.9439 87.9801 18.4751C88.1541 18.0064 88.2411 17.4986 88.2411 16.9517C88.2411 16.4048 88.1541 15.8952 87.9801 15.4229C87.8061 14.9506 87.538 14.5689 87.1758 14.2777C86.8136 13.9865 86.3519 13.8409 85.7908 13.8409C85.2298 13.8409 84.7681 13.9865 84.4059 14.2777C84.0437 14.5689 83.7756 14.9506 83.6016 15.4229C83.4276 15.8952 83.3406 16.4048 83.3406 16.9517C83.3406 17.4986 83.4276 18.0064 83.6016 18.4751C83.7756 18.9439 84.0437 19.3221 84.4059 19.6097C84.7681 19.8974 85.2298 20.0412 85.7908 20.0412ZM92.9925 21L90.4996 12.8182H91.8207L93.5891 19.0824H93.6744L95.4215 12.8182H96.7638L98.4897 19.0611H98.5749L100.343 12.8182H101.664L99.1715 21H97.9357L96.146 14.7145H96.0181L94.2283 21H92.9925ZM104.583 16.0781V21H103.326V12.8182H104.541V14.0966H104.647C104.839 13.6811 105.13 13.3473 105.521 13.0952C105.912 12.8395 106.416 12.7116 107.034 12.7116C107.588 12.7116 108.072 12.8253 108.488 13.0526C108.903 13.2763 109.227 13.6172 109.457 14.0753C109.688 14.5298 109.804 15.1051 109.804 15.8011V21H108.547V15.8864C108.547 15.2436 108.38 14.7429 108.046 14.3842C107.712 14.022 107.254 13.8409 106.672 13.8409C106.27 13.8409 105.912 13.9279 105.596 14.1019C105.283 14.2759 105.036 14.5298 104.855 14.8636C104.674 15.1974 104.583 15.6023 104.583 16.0781ZM113.358 10.0909V21H112.101V10.0909H113.358ZM118.984 21.1705C118.246 21.1705 117.597 20.9947 117.04 20.6431C116.486 20.2915 116.053 19.7997 115.74 19.1676C115.431 18.5355 115.277 17.7969 115.277 16.9517C115.277 16.0994 115.431 15.3555 115.74 14.7198C116.053 14.0842 116.486 13.5906 117.04 13.239C117.597 12.8874 118.246 12.7116 118.984 12.7116C119.723 12.7116 120.369 12.8874 120.923 13.239C121.481 13.5906 121.914 14.0842 122.223 14.7198C122.535 15.3555 122.692 16.0994 122.692 16.9517C122.692 17.7969 122.535 18.5355 122.223 19.1676C121.914 19.7997 121.481 20.2915 120.923 20.6431C120.369 20.9947 119.723 21.1705 118.984 21.1705ZM118.984 20.0412C119.545 20.0412 120.007 19.8974 120.369 19.6097C120.731 19.3221 120.999 18.9439 121.173 18.4751C121.347 18.0064 121.434 17.4986 121.434 16.9517C121.434 16.4048 121.347 15.8952 121.173 15.4229C120.999 14.9506 120.731 14.5689 120.369 14.2777C120.007 13.9865 119.545 13.8409 118.984 13.8409C118.423 13.8409 117.961 13.9865 117.599 14.2777C117.237 14.5689 116.969 14.9506 116.795 15.4229C116.621 15.8952 116.534 16.4048 116.534 16.9517C116.534 17.4986 116.621 18.0064 116.795 18.4751C116.969 18.9439 117.237 19.3221 117.599 19.6097C117.961 19.8974 118.423 20.0412 118.984 20.0412ZM127.018 21.1918C126.5 21.1918 126.029 21.0941 125.607 20.8988C125.184 20.6999 124.848 20.4141 124.6 20.0412C124.351 19.6648 124.227 19.2102 124.227 18.6776C124.227 18.2088 124.319 17.8288 124.504 17.5376C124.689 17.2429 124.935 17.0121 125.244 16.8452C125.553 16.6783 125.894 16.554 126.267 16.4723C126.644 16.3871 127.022 16.3196 127.402 16.2699C127.899 16.206 128.302 16.158 128.611 16.1261C128.923 16.0906 129.151 16.032 129.293 15.9503C129.438 15.8686 129.511 15.7266 129.511 15.5241V15.4815C129.511 14.956 129.367 14.5476 129.08 14.2564C128.796 13.9652 128.364 13.8196 127.785 13.8196C127.185 13.8196 126.715 13.951 126.374 14.2138C126.033 14.4766 125.793 14.7571 125.655 15.0554L124.461 14.6293C124.674 14.1321 124.959 13.745 125.314 13.468C125.672 13.1875 126.063 12.9922 126.486 12.8821C126.912 12.7685 127.331 12.7116 127.743 12.7116C128.005 12.7116 128.307 12.7436 128.648 12.8075C128.993 12.8679 129.325 12.994 129.644 13.1857C129.967 13.3775 130.236 13.6669 130.449 14.054C130.662 14.4411 130.768 14.9595 130.768 15.6094V21H129.511V19.892H129.447C129.362 20.0696 129.22 20.2596 129.021 20.462C128.822 20.6644 128.558 20.8366 128.227 20.9787C127.897 21.1207 127.494 21.1918 127.018 21.1918ZM127.21 20.0625C127.707 20.0625 128.126 19.9648 128.467 19.7695C128.812 19.5742 129.071 19.3221 129.245 19.0131C129.422 18.7042 129.511 18.3793 129.511 18.0384V16.8878C129.458 16.9517 129.341 17.0103 129.16 17.0636C128.982 17.1133 128.776 17.1577 128.542 17.1967C128.311 17.2322 128.085 17.2642 127.865 17.2926C127.649 17.3175 127.473 17.3388 127.338 17.3565C127.011 17.3991 126.706 17.4684 126.422 17.5643C126.141 17.6566 125.914 17.7969 125.74 17.9851C125.569 18.1697 125.484 18.4219 125.484 18.7415C125.484 19.1783 125.646 19.5085 125.969 19.7322C126.296 19.9524 126.709 20.0625 127.21 20.0625ZM136.152 21.1705C135.47 21.1705 134.868 20.9982 134.346 20.6538C133.824 20.3058 133.416 19.8157 133.121 19.1836C132.827 18.5479 132.679 17.7969 132.679 16.9304C132.679 16.071 132.827 15.3253 133.121 14.6932C133.416 14.0611 133.826 13.5728 134.352 13.2283C134.877 12.8839 135.485 12.7116 136.173 12.7116C136.706 12.7116 137.127 12.8004 137.436 12.978C137.748 13.152 137.986 13.3509 138.15 13.5746C138.317 13.7947 138.446 13.9759 138.539 14.1179H138.645V10.0909H139.902V21H138.688V19.7429H138.539C138.446 19.892 138.315 20.0803 138.144 20.3075C137.974 20.5312 137.731 20.7319 137.415 20.9094C137.099 21.0835 136.678 21.1705 136.152 21.1705ZM136.323 20.0412C136.827 20.0412 137.253 19.9098 137.601 19.647C137.949 19.3807 138.214 19.0131 138.395 18.5444C138.576 18.0721 138.666 17.527 138.666 16.9091C138.666 16.2983 138.578 15.7638 138.4 15.3058C138.222 14.8441 137.96 14.4854 137.612 14.2298C137.264 13.9705 136.834 13.8409 136.323 13.8409C135.79 13.8409 135.346 13.9776 134.991 14.2511C134.639 14.521 134.375 14.8885 134.197 15.3537C134.023 15.8153 133.936 16.3338 133.936 16.9091C133.936 17.4915 134.025 18.0206 134.203 18.4964C134.384 18.9687 134.65 19.3452 135.002 19.6257C135.357 19.9027 135.797 20.0412 136.323 20.0412ZM149.922 21.1705C149.183 21.1705 148.535 20.9947 147.977 20.6431C147.423 20.2915 146.99 19.7997 146.678 19.1676C146.369 18.5355 146.214 17.7969 146.214 16.9517C146.214 16.0994 146.369 15.3555 146.678 14.7198C146.99 14.0842 147.423 13.5906 147.977 13.239C148.535 12.8874 149.183 12.7116 149.922 12.7116C150.66 12.7116 151.307 12.8874 151.861 13.239C152.418 13.5906 152.851 14.0842 153.16 14.7198C153.473 15.3555 153.629 16.0994 153.629 16.9517C153.629 17.7969 153.473 18.5355 153.16 19.1676C152.851 19.7997 152.418 20.2915 151.861 20.6431C151.307 20.9947 150.66 21.1705 149.922 21.1705ZM149.922 20.0412C150.483 20.0412 150.944 19.8974 151.307 19.6097C151.669 19.3221 151.937 18.9439 152.111 18.4751C152.285 18.0064 152.372 17.4986 152.372 16.9517C152.372 16.4048 152.285 15.8952 152.111 15.4229C151.937 14.9506 151.669 14.5689 151.307 14.2777C150.944 13.9865 150.483 13.8409 149.922 13.8409C149.361 13.8409 148.899 13.9865 148.537 14.2777C148.175 14.5689 147.906 14.9506 147.732 15.4229C147.558 15.8952 147.471 16.4048 147.471 16.9517C147.471 17.4986 147.558 18.0064 147.732 18.4751C147.906 18.9439 148.175 19.3221 148.537 19.6097C148.899 19.8974 149.361 20.0412 149.922 20.0412ZM156.805 16.0781V21H155.548V12.8182H156.763V14.0966H156.869C157.061 13.6811 157.352 13.3473 157.743 13.0952C158.133 12.8395 158.638 12.7116 159.255 12.7116C159.809 12.7116 160.294 12.8253 160.71 13.0526C161.125 13.2763 161.448 13.6172 161.679 14.0753C161.91 14.5298 162.025 15.1051 162.025 15.8011V21H160.768V15.8864C160.768 15.2436 160.601 14.7429 160.267 14.3842C159.934 14.022 159.476 13.8409 158.893 13.8409C158.492 13.8409 158.133 13.9279 157.817 14.1019C157.505 14.2759 157.258 14.5298 157.077 14.8636C156.896 15.1974 156.805 15.6023 156.805 16.0781Z" fill="black"/>
<path d="M73.505 45L73.073 43.299C72.245 44.649 71.093 45.324 69.617 45.324C68.411 45.324 67.421 44.991 66.647 44.325C65.891 43.641 65.513 42.687 65.513 41.463C65.513 40.707 65.729 40.05 66.161 39.492C66.611 38.916 67.223 38.511 67.997 38.277C69.005 37.989 70.562 37.827 72.668 37.791C72.668 36.603 72.614 35.973 72.506 35.901C72.416 35.829 72.128 35.793 71.642 35.793C71.336 35.793 70.913 35.811 70.373 35.847C69.509 35.883 68.339 35.982 66.863 36.144C66.719 35.172 66.611 34.128 66.539 33.012C67.493 32.814 68.492 32.652 69.536 32.526C70.58 32.382 71.516 32.31 72.344 32.31C73.784 32.31 74.864 32.553 75.584 33.039C76.304 33.507 76.772 34.128 76.988 34.902C77.204 35.676 77.303 36.657 77.285 37.845L77.258 41.814L77.339 45H73.505ZM71.183 42.3C71.651 42.3 72.146 42.21 72.668 42.03V40.032H72.452C71.12 40.032 70.382 40.104 70.238 40.248C70.148 40.338 70.076 40.473 70.022 40.653C69.986 40.833 69.968 41.004 69.968 41.166C69.968 41.598 70.067 41.895 70.265 42.057C70.463 42.219 70.769 42.3 71.183 42.3ZM87.9017 32.31C89.1977 32.31 90.2237 32.742 90.9797 33.606C91.7537 34.452 92.1407 35.937 92.1407 38.061C92.1407 39.645 91.9877 40.941 91.6817 41.949C91.3757 42.939 91.0247 43.596 90.6287 43.92C90.2327 44.244 89.5397 44.505 88.5497 44.703C87.5777 44.901 86.5697 45 85.5257 45C85.2197 45 84.7067 44.982 83.9867 44.946V48.78L79.3697 48.969V32.58H83.1497L83.6087 34.497C84.0767 33.831 84.6707 33.3 85.3907 32.904C86.1287 32.508 86.9657 32.31 87.9017 32.31ZM86.8217 41.706C87.0197 41.562 87.1637 41.157 87.2537 40.491C87.3437 39.807 87.3887 39.159 87.3887 38.547C87.3887 37.539 87.2627 36.792 87.0107 36.306C86.7587 35.82 86.2547 35.577 85.4987 35.577C84.9587 35.577 84.4547 35.631 83.9867 35.739V41.733L84.7427 41.814C84.9767 41.832 85.3097 41.841 85.7417 41.841C86.3537 41.841 86.7137 41.796 86.8217 41.706ZM102.483 32.31C103.779 32.31 104.805 32.742 105.561 33.606C106.335 34.452 106.722 35.937 106.722 38.061C106.722 39.645 106.569 40.941 106.263 41.949C105.957 42.939 105.606 43.596 105.21 43.92C104.814 44.244 104.121 44.505 103.131 44.703C102.159 44.901 101.151 45 100.107 45C99.8008 45 99.2878 44.982 98.5678 44.946V48.78L93.9508 48.969V32.58H97.7308L98.1898 34.497C98.6578 33.831 99.2518 33.3 99.9717 32.904C100.71 32.508 101.547 32.31 102.483 32.31ZM101.403 41.706C101.601 41.562 101.745 41.157 101.835 40.491C101.925 39.807 101.97 39.159 101.97 38.547C101.97 37.539 101.844 36.792 101.592 36.306C101.34 35.82 100.836 35.577 100.08 35.577C99.5398 35.577 99.0358 35.631 98.5678 35.739V41.733L99.3238 41.814C99.5578 41.832 99.8908 41.841 100.323 41.841C100.935 41.841 101.295 41.796 101.403 41.706ZM122.636 40.788C122.636 42.39 122.123 43.542 121.097 44.244C120.089 44.946 118.649 45.297 116.777 45.297C115.463 45.297 113.951 45.108 112.241 44.73C112.277 44.37 112.358 43.857 112.484 43.191C112.628 42.507 112.745 41.985 112.835 41.625C113.483 41.733 114.203 41.823 114.995 41.895C115.787 41.949 116.462 41.976 117.02 41.976C117.506 41.976 117.803 41.949 117.911 41.895C117.929 41.877 117.947 41.832 117.965 41.76C118.001 41.67 118.019 41.58 118.019 41.49C118.019 41.13 117.794 40.887 117.344 40.761C117.2 40.725 116.651 40.572 115.697 40.302C114.743 40.032 113.96 39.546 113.348 38.844C112.754 38.124 112.457 37.233 112.457 36.171C112.457 35.613 112.583 34.992 112.835 34.308C113.087 33.624 113.357 33.192 113.645 33.012C113.861 32.868 114.383 32.724 115.211 32.58C116.039 32.418 116.804 32.337 117.506 32.337C119 32.337 120.503 32.445 122.015 32.661C122.015 32.985 121.97 33.534 121.88 34.308C121.79 35.064 121.709 35.541 121.637 35.739C120.107 35.541 118.874 35.442 117.938 35.442C117.452 35.442 117.137 35.469 116.993 35.523C116.957 35.541 116.921 35.595 116.885 35.685C116.849 35.757 116.831 35.856 116.831 35.982C116.831 36.234 116.912 36.414 117.074 36.522C117.236 36.648 117.659 36.801 118.343 36.981C119.153 37.215 119.846 37.458 120.422 37.71C121.016 37.962 121.529 38.34 121.961 38.844C122.411 39.348 122.636 39.996 122.636 40.788ZM129.892 39.897C129.892 40.221 129.901 40.563 129.919 40.923C129.937 41.265 129.991 41.481 130.081 41.571C130.207 41.697 130.648 41.76 131.404 41.76L132.322 41.733C132.484 42.597 132.565 43.596 132.565 44.73C132.223 44.856 131.719 44.973 131.053 45.081C130.405 45.189 129.784 45.243 129.19 45.243C127.948 45.243 126.985 44.973 126.301 44.433C125.635 43.875 125.302 43.02 125.302 41.868V35.226H123.277V32.769L125.302 32.58L126.517 29.61L129.892 29.421V32.58H132.754V35.226H129.892V39.897ZM140.128 45.351C137.968 45.351 136.348 44.847 135.268 43.839C134.206 42.813 133.675 41.202 133.675 39.006C133.675 37.8 133.783 36.747 133.999 35.847C134.233 34.929 134.512 34.29 134.836 33.93C135.25 33.462 136.006 33.075 137.104 32.769C138.22 32.463 139.264 32.31 140.236 32.31C142.558 32.31 144.214 32.805 145.204 33.795C146.194 34.785 146.689 36.369 146.689 38.547C146.689 40.887 146.158 42.606 145.096 43.704C144.034 44.802 142.378 45.351 140.128 45.351ZM140.209 42.192C140.911 42.192 141.37 41.949 141.586 41.463C141.802 40.959 141.91 40.077 141.91 38.817C141.91 37.935 141.865 37.26 141.775 36.792C141.685 36.306 141.514 35.955 141.262 35.739C141.028 35.505 140.659 35.388 140.155 35.388C139.435 35.388 139.021 35.451 138.913 35.577C138.769 35.703 138.652 36.099 138.562 36.765C138.472 37.431 138.427 38.124 138.427 38.844C138.427 40.068 138.544 40.932 138.778 41.436C139.03 41.94 139.507 42.192 140.209 42.192ZM156.147 32.31C156.381 32.31 156.624 32.337 156.876 32.391C157.146 32.445 157.344 32.508 157.47 32.58C157.47 32.976 157.425 33.633 157.335 34.551C157.245 35.451 157.164 36.09 157.092 36.468C156.912 36.45 156.579 36.441 156.093 36.441C154.959 36.441 153.951 36.504 153.069 36.63V45H148.452V32.58H152.313L152.853 34.578H152.88C153.402 33.894 153.96 33.345 154.554 32.931C155.148 32.517 155.679 32.31 156.147 32.31ZM166.215 41.76C166.665 41.76 167.502 41.715 168.726 41.625C168.888 41.625 169.185 41.607 169.617 41.571L170.022 44.352C168.636 45 166.836 45.324 164.622 45.324C162.552 45.324 160.959 44.802 159.843 43.758C158.745 42.714 158.196 41.139 158.196 39.033C158.196 37.953 158.331 36.909 158.601 35.901C158.889 34.893 159.213 34.191 159.573 33.795C159.951 33.399 160.653 33.057 161.679 32.769C162.705 32.481 163.722 32.337 164.73 32.337C166.35 32.337 167.565 32.625 168.375 33.201C169.185 33.777 169.716 34.578 169.968 35.604C170.22 36.612 170.346 37.971 170.346 39.681C169.122 39.753 167.925 39.789 166.755 39.789H162.921C162.921 40.365 163.038 40.797 163.272 41.085C163.524 41.373 163.875 41.562 164.325 41.652C164.775 41.724 165.405 41.76 166.215 41.76ZM163.191 35.55C163.083 35.604 163.002 35.838 162.948 36.252C162.894 36.666 162.858 37.134 162.84 37.656H164.244C165.09 37.656 165.702 37.647 166.08 37.629C166.08 36.765 165.954 36.153 165.702 35.793C165.468 35.433 165.054 35.253 164.46 35.253C163.974 35.253 163.551 35.352 163.191 35.55Z" fill="black"/>
</svg>
