<svg width="198" height="64" viewBox="0 0 198 64" fill="none" xmlns="http://www.w3.org/2000/svg">
<rect width="198" height="64" rx="32" fill="white"/>
<g clip-path="url(#clip0_112_3)">
<path d="M47.3916 26.0346C43.4418 23.5655 37.1024 19.6008 27.2695 13.4474C26.6066 12.9581 25.8438 12.894 25.1848 13.1433L42.0553 31.9986L47.3916 26.0346Z" fill="#32BBFF"/>
<path d="M25.1849 13.1432C25.0614 13.19 24.9412 13.2464 24.8262 13.3145C24.0985 13.7545 23.5637 14.6011 23.5637 15.6719V48.3252C23.5637 49.396 24.0984 50.2426 24.8262 50.6825C24.941 50.7506 25.0611 50.8072 25.1845 50.8542L42.0554 31.9986L25.1849 13.1432Z" fill="#32BBFF"/>
<path d="M42.0555 31.9985L25.1846 50.8542C25.8438 51.1054 26.6065 51.0461 27.2697 50.5497C36.8055 44.5818 43.0734 40.664 47.0689 38.174C47.1801 38.1042 47.2891 38.0359 47.3968 37.9683L42.0555 31.9985Z" fill="#32BBFF"/>
<path d="M23.5637 31.9985V48.3252C23.5637 49.396 24.0984 50.2426 24.8262 50.6825C24.941 50.7505 25.0611 50.8072 25.1845 50.8542L42.0554 31.9985H23.5637Z" fill="#2C9FD9"/>
<path d="M27.2698 13.4474C26.4825 12.8664 25.5542 12.883 24.8264 13.3146L41.7996 32.2847L47.3918 26.0345C43.4421 23.5655 37.1027 19.6008 27.2698 13.4474Z" fill="#29CC5E"/>
<path d="M41.7997 31.7125L24.8264 50.6825C25.5542 51.1141 26.4825 51.139 27.2698 50.5497C36.8056 44.5818 43.0736 40.6641 47.069 38.174C47.1802 38.1042 47.2892 38.0359 47.3969 37.9683L41.7997 31.7125Z" fill="#D93F21"/>
<path d="M54.4363 31.9986C54.4363 31.0939 54.0278 30.1808 53.2183 29.6745C53.2183 29.6745 51.7043 28.7304 47.0636 25.8293L41.5437 31.9986L47.069 38.174C51.6587 35.2938 53.2182 34.3226 53.2182 34.3226C54.0278 33.8164 54.4363 32.9033 54.4363 31.9986Z" fill="#FFD500"/>
<path d="M53.2183 34.3226C54.0278 33.8163 54.4363 32.9033 54.4363 31.9985H41.5437L47.069 38.1739C51.6588 35.2938 53.2183 34.3226 53.2183 34.3226Z" fill="#FFAA00"/>
</g>
<path d="M70.2401 21.1705C69.5582 21.1705 68.9563 20.9982 68.4343 20.6538C67.9123 20.3058 67.5039 19.8157 67.2092 19.1836C66.9144 18.5479 66.767 17.7969 66.767 16.9304C66.767 16.071 66.9144 15.3253 67.2092 14.6932C67.5039 14.0611 67.9141 13.5728 68.4396 13.2283C68.9652 12.8839 69.5724 12.7116 70.2614 12.7116C70.794 12.7116 71.2148 12.8004 71.5238 12.978C71.8363 13.152 72.0742 13.3509 72.2376 13.5746C72.4045 13.7947 72.5341 13.9759 72.6264 14.1179H72.733V10.0909H73.9901V21H72.7756V19.7429H72.6264C72.5341 19.892 72.4027 20.0803 72.2322 20.3075C72.0618 20.5312 71.8185 20.7319 71.5025 20.9094C71.1864 21.0835 70.7656 21.1705 70.2401 21.1705ZM70.4105 20.0412C70.9148 20.0412 71.3409 19.9098 71.6889 19.647C72.0369 19.3807 72.3015 19.0131 72.4826 18.5444C72.6637 18.0721 72.7543 17.527 72.7543 16.9091C72.7543 16.2983 72.6655 15.7638 72.4879 15.3058C72.3104 14.8441 72.0476 14.4854 71.6996 14.2298C71.3516 13.9705 70.9219 13.8409 70.4105 13.8409C69.8778 13.8409 69.4339 13.9776 69.0788 14.2511C68.7273 14.521 68.4627 14.8885 68.2852 15.3537C68.1112 15.8153 68.0241 16.3338 68.0241 16.9091C68.0241 17.4915 68.1129 18.0206 68.2905 18.4964C68.4716 18.9687 68.7379 19.3452 69.0895 19.6257C69.4446 19.9027 69.8849 20.0412 70.4105 20.0412ZM79.7908 21.1705C79.0522 21.1705 78.4041 20.9947 77.8466 20.6431C77.2926 20.2915 76.8594 19.7997 76.5469 19.1676C76.2379 18.5355 76.0835 17.7969 76.0835 16.9517C76.0835 16.0994 76.2379 15.3555 76.5469 14.7198C76.8594 14.0842 77.2926 13.5906 77.8466 13.239C78.4041 12.8874 79.0522 12.7116 79.7908 12.7116C80.5295 12.7116 81.1758 12.8874 81.7298 13.239C82.2873 13.5906 82.7205 14.0842 83.0295 14.7198C83.342 15.3555 83.4982 16.0994 83.4982 16.9517C83.4982 17.7969 83.342 18.5355 83.0295 19.1676C82.7205 19.7997 82.2873 20.2915 81.7298 20.6431C81.1758 20.9947 80.5295 21.1705 79.7908 21.1705ZM79.7908 20.0412C80.3519 20.0412 80.8136 19.8974 81.1758 19.6097C81.538 19.3221 81.8061 18.9439 81.9801 18.4751C82.1541 18.0064 82.2411 17.4986 82.2411 16.9517C82.2411 16.4048 82.1541 15.8952 81.9801 15.4229C81.8061 14.9506 81.538 14.5689 81.1758 14.2777C80.8136 13.9865 80.3519 13.8409 79.7908 13.8409C79.2298 13.8409 78.7681 13.9865 78.4059 14.2777C78.0437 14.5689 77.7756 14.9506 77.6016 15.4229C77.4276 15.8952 77.3406 16.4048 77.3406 16.9517C77.3406 17.4986 77.4276 18.0064 77.6016 18.4751C77.7756 18.9439 78.0437 19.3221 78.4059 19.6097C78.7681 19.8974 79.2298 20.0412 79.7908 20.0412ZM86.9925 21L84.4996 12.8182H85.8207L87.5891 19.0824H87.6744L89.4215 12.8182H90.7638L92.4897 19.0611H92.5749L94.3434 12.8182H95.6644L93.1715 21H91.9357L90.146 14.7145H90.0181L88.2283 21H86.9925ZM98.5835 16.0781V21H97.3263V12.8182H98.5408V14.0966H98.6474C98.8391 13.6811 99.1303 13.3473 99.521 13.0952C99.9116 12.8395 100.416 12.7116 101.034 12.7116C101.588 12.7116 102.072 12.8253 102.488 13.0526C102.903 13.2763 103.227 13.6172 103.457 14.0753C103.688 14.5298 103.804 15.1051 103.804 15.8011V21H102.547V15.8864C102.547 15.2436 102.38 14.7429 102.046 14.3842C101.712 14.022 101.254 13.8409 100.672 13.8409C100.27 13.8409 99.9116 13.9279 99.5955 14.1019C99.283 14.2759 99.0362 14.5298 98.8551 14.8636C98.674 15.1974 98.5835 15.6023 98.5835 16.0781ZM107.358 10.0909V21H106.101V10.0909H107.358ZM112.984 21.1705C112.246 21.1705 111.597 20.9947 111.04 20.6431C110.486 20.2915 110.053 19.7997 109.74 19.1676C109.431 18.5355 109.277 17.7969 109.277 16.9517C109.277 16.0994 109.431 15.3555 109.74 14.7198C110.053 14.0842 110.486 13.5906 111.04 13.239C111.597 12.8874 112.246 12.7116 112.984 12.7116C113.723 12.7116 114.369 12.8874 114.923 13.239C115.481 13.5906 115.914 14.0842 116.223 14.7198C116.535 15.3555 116.692 16.0994 116.692 16.9517C116.692 17.7969 116.535 18.5355 116.223 19.1676C115.914 19.7997 115.481 20.2915 114.923 20.6431C114.369 20.9947 113.723 21.1705 112.984 21.1705ZM112.984 20.0412C113.545 20.0412 114.007 19.8974 114.369 19.6097C114.731 19.3221 114.999 18.9439 115.173 18.4751C115.347 18.0064 115.434 17.4986 115.434 16.9517C115.434 16.4048 115.347 15.8952 115.173 15.4229C114.999 14.9506 114.731 14.5689 114.369 14.2777C114.007 13.9865 113.545 13.8409 112.984 13.8409C112.423 13.8409 111.961 13.9865 111.599 14.2777C111.237 14.5689 110.969 14.9506 110.795 15.4229C110.621 15.8952 110.534 16.4048 110.534 16.9517C110.534 17.4986 110.621 18.0064 110.795 18.4751C110.969 18.9439 111.237 19.3221 111.599 19.6097C111.961 19.8974 112.423 20.0412 112.984 20.0412ZM121.018 21.1918C120.5 21.1918 120.029 21.0941 119.607 20.8988C119.184 20.6999 118.848 20.4141 118.6 20.0412C118.351 19.6648 118.227 19.2102 118.227 18.6776C118.227 18.2088 118.319 17.8288 118.504 17.5376C118.689 17.2429 118.935 17.0121 119.244 16.8452C119.553 16.6783 119.894 16.554 120.267 16.4723C120.644 16.3871 121.022 16.3196 121.402 16.2699C121.899 16.206 122.302 16.158 122.611 16.1261C122.923 16.0906 123.151 16.032 123.293 15.9503C123.438 15.8686 123.511 15.7266 123.511 15.5241V15.4815C123.511 14.956 123.367 14.5476 123.08 14.2564C122.796 13.9652 122.364 13.8196 121.785 13.8196C121.185 13.8196 120.715 13.951 120.374 14.2138C120.033 14.4766 119.793 14.7571 119.655 15.0554L118.461 14.6293C118.674 14.1321 118.959 13.745 119.314 13.468C119.672 13.1875 120.063 12.9922 120.486 12.8821C120.912 12.7685 121.331 12.7116 121.743 12.7116C122.005 12.7116 122.307 12.7436 122.648 12.8075C122.993 12.8679 123.325 12.994 123.644 13.1857C123.967 13.3775 124.236 13.6669 124.449 14.054C124.662 14.4411 124.768 14.9595 124.768 15.6094V21H123.511V19.892H123.447C123.362 20.0696 123.22 20.2596 123.021 20.462C122.822 20.6644 122.558 20.8366 122.227 20.9787C121.897 21.1207 121.494 21.1918 121.018 21.1918ZM121.21 20.0625C121.707 20.0625 122.126 19.9648 122.467 19.7695C122.812 19.5742 123.071 19.3221 123.245 19.0131C123.422 18.7042 123.511 18.3793 123.511 18.0384V16.8878C123.458 16.9517 123.341 17.0103 123.16 17.0636C122.982 17.1133 122.776 17.1577 122.542 17.1967C122.311 17.2322 122.085 17.2642 121.865 17.2926C121.649 17.3175 121.473 17.3388 121.338 17.3565C121.011 17.3991 120.706 17.4684 120.422 17.5643C120.141 17.6566 119.914 17.7969 119.74 17.9851C119.569 18.1697 119.484 18.4219 119.484 18.7415C119.484 19.1783 119.646 19.5085 119.969 19.7322C120.296 19.9524 120.709 20.0625 121.21 20.0625ZM130.152 21.1705C129.47 21.1705 128.868 20.9982 128.346 20.6538C127.824 20.3058 127.416 19.8157 127.121 19.1836C126.827 18.5479 126.679 17.7969 126.679 16.9304C126.679 16.071 126.827 15.3253 127.121 14.6932C127.416 14.0611 127.826 13.5728 128.352 13.2283C128.877 12.8839 129.485 12.7116 130.173 12.7116C130.706 12.7116 131.127 12.8004 131.436 12.978C131.748 13.152 131.986 13.3509 132.15 13.5746C132.317 13.7947 132.446 13.9759 132.539 14.1179H132.645V10.0909H133.902V21H132.688V19.7429H132.539C132.446 19.892 132.315 20.0803 132.144 20.3075C131.974 20.5312 131.731 20.7319 131.415 20.9094C131.099 21.0835 130.678 21.1705 130.152 21.1705ZM130.323 20.0412C130.827 20.0412 131.253 19.9098 131.601 19.647C131.949 19.3807 132.214 19.0131 132.395 18.5444C132.576 18.0721 132.666 17.527 132.666 16.9091C132.666 16.2983 132.578 15.7638 132.4 15.3058C132.222 14.8441 131.96 14.4854 131.612 14.2298C131.264 13.9705 130.834 13.8409 130.323 13.8409C129.79 13.8409 129.346 13.9776 128.991 14.2511C128.639 14.521 128.375 14.8885 128.197 15.3537C128.023 15.8153 127.936 16.3338 127.936 16.9091C127.936 17.4915 128.025 18.0206 128.203 18.4964C128.384 18.9687 128.65 19.3452 129.002 19.6257C129.357 19.9027 129.797 20.0412 130.323 20.0412ZM143.922 21.1705C143.183 21.1705 142.535 20.9947 141.977 20.6431C141.423 20.2915 140.99 19.7997 140.678 19.1676C140.369 18.5355 140.214 17.7969 140.214 16.9517C140.214 16.0994 140.369 15.3555 140.678 14.7198C140.99 14.0842 141.423 13.5906 141.977 13.239C142.535 12.8874 143.183 12.7116 143.922 12.7116C144.66 12.7116 145.307 12.8874 145.861 13.239C146.418 13.5906 146.851 14.0842 147.16 14.7198C147.473 15.3555 147.629 16.0994 147.629 16.9517C147.629 17.7969 147.473 18.5355 147.16 19.1676C146.851 19.7997 146.418 20.2915 145.861 20.6431C145.307 20.9947 144.66 21.1705 143.922 21.1705ZM143.922 20.0412C144.483 20.0412 144.944 19.8974 145.307 19.6097C145.669 19.3221 145.937 18.9439 146.111 18.4751C146.285 18.0064 146.372 17.4986 146.372 16.9517C146.372 16.4048 146.285 15.8952 146.111 15.4229C145.937 14.9506 145.669 14.5689 145.307 14.2777C144.944 13.9865 144.483 13.8409 143.922 13.8409C143.361 13.8409 142.899 13.9865 142.537 14.2777C142.175 14.5689 141.906 14.9506 141.732 15.4229C141.558 15.8952 141.471 16.4048 141.471 16.9517C141.471 17.4986 141.558 18.0064 141.732 18.4751C141.906 18.9439 142.175 19.3221 142.537 19.6097C142.899 19.8974 143.361 20.0412 143.922 20.0412ZM150.805 16.0781V21H149.548V12.8182H150.763V14.0966H150.869C151.061 13.6811 151.352 13.3473 151.743 13.0952C152.133 12.8395 152.638 12.7116 153.255 12.7116C153.809 12.7116 154.294 12.8253 154.71 13.0526C155.125 13.2763 155.448 13.6172 155.679 14.0753C155.91 14.5298 156.025 15.1051 156.025 15.8011V21H154.768V15.8864C154.768 15.2436 154.601 14.7429 154.267 14.3842C153.934 14.022 153.476 13.8409 152.893 13.8409C152.492 13.8409 152.133 13.9279 151.817 14.1019C151.505 14.2759 151.258 14.5298 151.077 14.8636C150.896 15.1974 150.805 15.6023 150.805 16.0781Z" fill="black"/>
<path d="M75.639 32.31C76.935 32.31 77.961 32.742 78.717 33.606C79.491 34.452 79.878 35.937 79.878 38.061C79.878 39.645 79.725 40.941 79.419 41.949C79.113 42.939 78.762 43.596 78.366 43.92C77.97 44.244 77.277 44.505 76.287 44.703C75.315 44.901 74.307 45 73.263 45C72.957 45 72.444 44.982 71.724 44.946V48.78L67.107 48.969V32.58H70.887L71.346 34.497C71.814 33.831 72.408 33.3 73.128 32.904C73.866 32.508 74.703 32.31 75.639 32.31ZM74.559 41.706C74.757 41.562 74.901 41.157 74.991 40.491C75.081 39.807 75.126 39.159 75.126 38.547C75.126 37.539 75 36.792 74.748 36.306C74.496 35.82 73.992 35.577 73.236 35.577C72.696 35.577 72.192 35.631 71.724 35.739V41.733L72.48 41.814C72.714 41.832 73.047 41.841 73.479 41.841C74.091 41.841 74.451 41.796 74.559 41.706ZM81.7691 28.8L86.3861 28.611V45H81.7691V28.8ZM96.0734 45L95.6414 43.299C94.8134 44.649 93.6614 45.324 92.1854 45.324C90.9794 45.324 89.9894 44.991 89.2154 44.325C88.4594 43.641 88.0814 42.687 88.0814 41.463C88.0814 40.707 88.2974 40.05 88.7294 39.492C89.1794 38.916 89.7914 38.511 90.5654 38.277C91.5734 37.989 93.1304 37.827 95.2364 37.791C95.2364 36.603 95.1824 35.973 95.0744 35.901C94.9844 35.829 94.6964 35.793 94.2104 35.793C93.9044 35.793 93.4814 35.811 92.9414 35.847C92.0774 35.883 90.9074 35.982 89.4314 36.144C89.2874 35.172 89.1794 34.128 89.1074 33.012C90.0614 32.814 91.0604 32.652 92.1044 32.526C93.1484 32.382 94.0844 32.31 94.9124 32.31C96.3524 32.31 97.4324 32.553 98.1524 33.039C98.8724 33.507 99.3404 34.128 99.5564 34.902C99.7724 35.676 99.8714 36.657 99.8534 37.845L99.8264 41.814L99.9074 45H96.0734ZM93.7514 42.3C94.2194 42.3 94.7144 42.21 95.2364 42.03V40.032H95.0204C93.6884 40.032 92.9504 40.104 92.8064 40.248C92.7164 40.338 92.6444 40.473 92.5904 40.653C92.5544 40.833 92.5364 41.004 92.5364 41.166C92.5364 41.598 92.6354 41.895 92.8334 42.057C93.0314 42.219 93.3374 42.3 93.7514 42.3ZM114.79 32.58L111.55 42.975C110.92 44.973 110.353 46.422 109.849 47.322C109.345 48.24 108.841 48.879 108.337 49.239C108.049 49.437 107.59 49.59 106.96 49.698C106.348 49.806 105.682 49.86 104.962 49.86C103.882 49.86 103.018 49.761 102.37 49.563C102.352 49.131 102.37 48.6 102.424 47.97C102.478 47.358 102.55 46.836 102.64 46.404C103.396 46.44 104.134 46.458 104.854 46.458C105.394 46.458 105.799 46.449 106.069 46.431C106.339 45.909 106.591 45.36 106.825 44.784L104.962 44.676L100.804 32.58H105.691L107.851 41.274L107.878 41.787H107.959L109.903 32.58H114.79ZM129.964 40.788C129.964 42.39 129.451 43.542 128.425 44.244C127.417 44.946 125.977 45.297 124.105 45.297C122.791 45.297 121.279 45.108 119.569 44.73C119.605 44.37 119.686 43.857 119.812 43.191C119.956 42.507 120.073 41.985 120.163 41.625C120.811 41.733 121.531 41.823 122.323 41.895C123.115 41.949 123.79 41.976 124.348 41.976C124.834 41.976 125.131 41.949 125.239 41.895C125.257 41.877 125.275 41.832 125.293 41.76C125.329 41.67 125.347 41.58 125.347 41.49C125.347 41.13 125.122 40.887 124.672 40.761C124.528 40.725 123.979 40.572 123.025 40.302C122.071 40.032 121.288 39.546 120.676 38.844C120.082 38.124 119.785 37.233 119.785 36.171C119.785 35.613 119.911 34.992 120.163 34.308C120.415 33.624 120.685 33.192 120.973 33.012C121.189 32.868 121.711 32.724 122.539 32.58C123.367 32.418 124.132 32.337 124.834 32.337C126.328 32.337 127.831 32.445 129.343 32.661C129.343 32.985 129.298 33.534 129.208 34.308C129.118 35.064 129.037 35.541 128.965 35.739C127.435 35.541 126.202 35.442 125.266 35.442C124.78 35.442 124.465 35.469 124.321 35.523C124.285 35.541 124.249 35.595 124.213 35.685C124.177 35.757 124.159 35.856 124.159 35.982C124.159 36.234 124.24 36.414 124.402 36.522C124.564 36.648 124.987 36.801 125.671 36.981C126.481 37.215 127.174 37.458 127.75 37.71C128.344 37.962 128.857 38.34 129.289 38.844C129.739 39.348 129.964 39.996 129.964 40.788ZM137.22 39.897C137.22 40.221 137.229 40.563 137.247 40.923C137.265 41.265 137.319 41.481 137.409 41.571C137.535 41.697 137.976 41.76 138.732 41.76L139.65 41.733C139.812 42.597 139.893 43.596 139.893 44.73C139.551 44.856 139.047 44.973 138.381 45.081C137.733 45.189 137.112 45.243 136.518 45.243C135.276 45.243 134.313 44.973 133.629 44.433C132.963 43.875 132.63 43.02 132.63 41.868V35.226H130.605V32.769L132.63 32.58L133.845 29.61L137.22 29.421V32.58H140.082V35.226H137.22V39.897ZM147.456 45.351C145.296 45.351 143.676 44.847 142.596 43.839C141.534 42.813 141.003 41.202 141.003 39.006C141.003 37.8 141.111 36.747 141.327 35.847C141.561 34.929 141.84 34.29 142.164 33.93C142.578 33.462 143.334 33.075 144.432 32.769C145.548 32.463 146.592 32.31 147.564 32.31C149.886 32.31 151.542 32.805 152.532 33.795C153.522 34.785 154.017 36.369 154.017 38.547C154.017 40.887 153.486 42.606 152.424 43.704C151.362 44.802 149.706 45.351 147.456 45.351ZM147.537 42.192C148.239 42.192 148.698 41.949 148.914 41.463C149.13 40.959 149.238 40.077 149.238 38.817C149.238 37.935 149.193 37.26 149.103 36.792C149.013 36.306 148.842 35.955 148.59 35.739C148.356 35.505 147.987 35.388 147.483 35.388C146.763 35.388 146.349 35.451 146.241 35.577C146.097 35.703 145.98 36.099 145.89 36.765C145.8 37.431 145.755 38.124 145.755 38.844C145.755 40.068 145.872 40.932 146.106 41.436C146.358 41.94 146.835 42.192 147.537 42.192ZM163.475 32.31C163.709 32.31 163.952 32.337 164.204 32.391C164.474 32.445 164.672 32.508 164.798 32.58C164.798 32.976 164.753 33.633 164.663 34.551C164.573 35.451 164.492 36.09 164.42 36.468C164.24 36.45 163.907 36.441 163.421 36.441C162.287 36.441 161.279 36.504 160.397 36.63V45H155.78V32.58H159.641L160.181 34.578H160.208C160.73 33.894 161.288 33.345 161.882 32.931C162.476 32.517 163.007 32.31 163.475 32.31ZM173.543 41.76C173.993 41.76 174.83 41.715 176.054 41.625C176.216 41.625 176.513 41.607 176.945 41.571L177.35 44.352C175.964 45 174.164 45.324 171.95 45.324C169.88 45.324 168.287 44.802 167.171 43.758C166.073 42.714 165.524 41.139 165.524 39.033C165.524 37.953 165.659 36.909 165.929 35.901C166.217 34.893 166.541 34.191 166.901 33.795C167.279 33.399 167.981 33.057 169.007 32.769C170.033 32.481 171.05 32.337 172.058 32.337C173.678 32.337 174.893 32.625 175.703 33.201C176.513 33.777 177.044 34.578 177.296 35.604C177.548 36.612 177.674 37.971 177.674 39.681C176.45 39.753 175.253 39.789 174.083 39.789H170.249C170.249 40.365 170.366 40.797 170.6 41.085C170.852 41.373 171.203 41.562 171.653 41.652C172.103 41.724 172.733 41.76 173.543 41.76ZM170.519 35.55C170.411 35.604 170.33 35.838 170.276 36.252C170.222 36.666 170.186 37.134 170.168 37.656H171.572C172.418 37.656 173.03 37.647 173.408 37.629C173.408 36.765 173.282 36.153 173.03 35.793C172.796 35.433 172.382 35.253 171.788 35.253C171.302 35.253 170.879 35.352 170.519 35.55Z" fill="black"/>
<defs>
<clipPath id="clip0_112_3">
<rect width="34" height="38" fill="white" transform="translate(22 13)"/>
</clipPath>
</defs>
</svg>
